<svg viewBox="0 0 28 28" xmlns="http://www.w3.org/2000/svg"
	xmlns:xlink="http://www.w3.org/1999/xlink" width="28.000000" height="28.000000" fill="none"
>
	<rect width="28.000000" height="28.000000" x="0.000000" y="0.000000" rx="4.000000"
		fill="rgb(0,98,255)" />
	<rect width="24.000000" height="24.000000" x="0.000000"
		y="0.000000" transform="matrix(1,-6.12324e-17,-6.12324e-17,-1,2,26)" />
	<path id="Shape"
		d="M8.80027 9.02637C7.72395 9.02637 6.85142 9.8989 6.85142 10.9752L6.85142 20.6947L6.02988 20.6947C5.6709 20.6947 5.37988 20.9857 5.37988 21.3447C5.37988 21.7037 5.6709 21.9947 6.02988 21.9947L7.46506 21.9947C7.49336 21.9982 7.52218 22 7.55142 22L10.0491 22C10.0784 22 10.1072 21.9982 10.1355 21.9947L12.6628 21.9947C12.6911 21.9982 12.7199 22 12.7492 22L15.249 22C15.2782 22 15.3071 21.9982 15.3354 21.9947L17.8625 21.9947C17.8908 21.9982 17.9196 22 17.9489 22L20.4487 22C20.478 22 20.5068 21.9982 20.5351 21.9947L21.9952 21.9947C22.3541 21.9947 22.6452 21.7037 22.6452 21.3447C22.6452 20.9857 22.3541 20.6947 21.9952 20.6947L21.1487 20.6947L21.1487 7.94992C21.1487 6.87301 20.2757 6 19.1988 6C18.1219 6 17.2489 6.87301 17.2489 7.94992L17.2489 20.6947L15.949 20.6947L15.949 13.9968C15.949 12.9199 15.076 12.0469 13.9991 12.0469C12.9222 12.0469 12.0492 12.9199 12.0492 13.9968L12.0492 20.6947L10.7491 20.6947L10.7491 10.9752C10.7491 9.8989 9.87659 9.02637 8.80027 9.02637Z"
		fill="rgb(255,255,255)" fill-rule="nonzero" />
	<path id="Shape"
		d="M10.7491 19.3947L10.7491 10.9752C10.7491 9.8989 9.87659 9.02637 8.80027 9.02637C7.72395 9.02637 6.85142 9.8989 6.85142 10.9752L6.85142 20.6947L6.03109 20.6947L6.02988 20.6947C5.6709 20.6947 5.37988 20.9857 5.37988 21.3447C5.37988 21.7037 5.6709 21.9947 6.02988 21.9947L7.46506 21.9947C7.49336 21.9982 7.52218 22 7.55142 22L10.0491 22C10.0784 22 10.1072 21.9982 10.1355 21.9947L12.6628 21.9947C12.6911 21.9982 12.7199 22 12.7492 22L15.249 22C15.2782 22 15.3071 21.9982 15.3354 21.9947L17.8625 21.9947C17.8908 21.9982 17.9196 22 17.9489 22L20.4487 22C20.478 22 20.5068 21.9982 20.5351 21.9947L21.9952 21.9947C22.3541 21.9947 22.6452 21.7037 22.6452 21.3447C22.6452 20.9857 22.3541 20.6947 21.9952 20.6947L21.994 20.6947L21.1487 20.6947L21.1487 7.94992C21.1487 6.87301 20.2757 6 19.1988 6C18.1219 6 17.2489 6.87301 17.2489 7.94992L17.2489 20.6947L15.949 20.6947L15.949 13.9968C15.949 13.9891 15.949 13.9814 15.9489 13.9737C15.9365 12.9074 15.0683 12.0469 13.9991 12.0469C12.9222 12.0469 12.0492 12.9199 12.0492 13.9968L12.0492 20.6947L12.0491 20.6947L10.7492 20.6947L10.7491 20.6947L10.7491 19.3947ZM9.44912 20.7L9.44912 10.9752C9.44912 10.8856 9.43328 10.8026 9.40161 10.7261C9.36994 10.6497 9.32242 10.5798 9.25908 10.5164C9.19573 10.4531 9.12582 10.4056 9.04935 10.3739C8.97289 10.3422 8.88986 10.3264 8.80027 10.3264C8.71068 10.3264 8.62765 10.3422 8.55118 10.3739C8.47472 10.4056 8.40481 10.4531 8.34146 10.5164C8.27811 10.5798 8.2306 10.6497 8.19893 10.7261C8.16725 10.8026 8.15142 10.8856 8.15142 10.9752L8.15142 20.7L9.44912 20.7ZM13.3492 20.7L14.649 20.7L14.649 13.9968C14.649 13.9071 14.6331 13.8239 14.6014 13.7473C14.5697 13.6707 14.5221 13.6007 14.4587 13.5372C14.3952 13.4738 14.3252 13.4262 14.2486 13.3945C14.172 13.3627 14.0888 13.3469 13.9991 13.3469C13.9094 13.3469 13.8262 13.3627 13.7496 13.3945C13.673 13.4262 13.603 13.4738 13.5395 13.5372C13.4761 13.6007 13.4285 13.6707 13.3968 13.7473C13.365 13.8239 13.3492 13.9071 13.3492 13.9968L13.3492 20.7ZM18.5489 20.7L19.8487 20.7L19.8487 7.94992C19.8487 7.86018 19.8329 7.77702 19.8011 7.70042C19.7694 7.62383 19.7218 7.55381 19.6584 7.49036C19.5949 7.4269 19.5249 7.37931 19.4483 7.34759C19.3717 7.31586 19.2885 7.3 19.1988 7.3C19.1091 7.3 19.0259 7.31586 18.9493 7.34759C18.8727 7.37932 18.8027 7.42691 18.7392 7.49036C18.6758 7.55381 18.6282 7.62383 18.5965 7.70043C18.5647 7.77702 18.5489 7.86018 18.5489 7.94992L18.5489 20.7Z"
		fill="rgb(255,255,255)" fill-rule="evenodd" />
</svg>