<svg viewBox="0 0 28 28" xmlns="http://www.w3.org/2000/svg"
	xmlns:xlink="http://www.w3.org/1999/xlink" width="28.000000" height="28.000000" fill="none"
>
	<rect width="28.000000" height="28.000000" x="0.000000" y="0.000000" rx="4.000000"
		fill="rgb(0,98,255)" />
	<rect width="24.000000" height="24.000000" x="2.000000"
		y="2.000000" />
	<path id="Shape"
		d="M11.7002 6L7.2998 6C6.58203 6 6 6.58203 6 7.30005L6 9.69995C6 10.418 6.58203 11 7.2998 11L11.7002 11C12.418 11 13 10.418 13 9.69995L13 7.30005C13 6.58203 12.418 6 11.7002 6ZM15.5996 6L20 6C20.7178 6 21.2998 6.58203 21.2998 7.30005L21.2998 12.3999C21.2998 13.1179 20.7178 13.7 20 13.7L15.5996 13.7C14.8818 13.7 14.2998 13.1179 14.2998 12.3999L14.2998 7.30005C14.2998 6.58203 14.8818 6 15.5996 6ZM11.7002 12.3L7.2998 12.3C6.58203 12.3 6 12.8821 6 13.6001L6 20C6 20.718 6.58203 21.3 7.2998 21.3L11.7002 21.3C12.418 21.3 13 20.718 13 20L13 13.6001C13 12.8821 12.418 12.3 11.7002 12.3ZM20 15L15.5996 15C14.8818 15 14.2998 15.582 14.2998 16.3L14.2998 20C14.2998 20.718 14.8818 21.3 15.5996 21.3L20 21.3C20.7178 21.3 21.2998 20.718 21.2998 20L21.2998 16.3C21.2998 15.582 20.7178 15 20 15Z"
		fill="rgb(113,118,129)" fill-opacity="0" fill-rule="evenodd" />
	<path id="Shape"
		d="M12.9999 7.28104C12.9897 6.57179 12.4116 6 11.7002 6L7.2998 6C6.58203 6 6 6.58203 6 7.30005L6 9.69995C6 10.418 6.58203 11 7.2998 11L11.7002 11C12.4104 11 12.9877 10.4302 12.9998 9.72273C12.9999 9.71515 13 9.70756 13 9.69995L13 7.30005L12.9999 7.28104ZM13 16.2656L13 13.6001C13 12.8821 12.418 12.3 11.7002 12.3L7.2998 12.3C6.58203 12.3 6 12.8821 6 13.6001L6 20C6 20.718 6.58203 21.3 7.2998 21.3L11.7002 21.3C12.4116 21.3 12.9897 20.7283 12.9999 20.019C13 20.0127 13 20.0063 13 20L13 16.2656ZM14.2998 9.73438L14.2998 12.3999C14.2998 13.1179 14.8818 13.7 15.5996 13.7L20 13.7C20.7178 13.7 21.2998 13.1179 21.2998 12.3999L21.2998 7.30005C21.2998 6.58203 20.7178 6 20 6L15.5996 6C14.8882 6 14.3101 6.57179 14.2999 7.28104C14.2999 7.28737 14.2998 7.2937 14.2998 7.30005L14.2998 9.73438ZM14.3 16.2773C14.2999 16.2848 14.2998 16.2924 14.2998 16.3L14.2998 20L14.2999 20.019C14.3101 20.7283 14.8882 21.3 15.5996 21.3L20 21.3C20.7178 21.3 21.2998 20.718 21.2998 20L21.2998 16.3C21.2998 15.582 20.7178 15 20 15L15.5996 15C14.8894 15 14.3122 15.5698 14.3 16.2773ZM7.2998 7.3L11.7002 7.3L11.7 7.30005L11.7 9.69995L11.7002 9.7L7.2998 9.7L7.3 9.69995L7.3 7.30005L7.2998 7.3ZM15.5996 7.3L20 7.3L19.9998 7.30005L19.9998 12.3999L20 12.4L15.5996 12.4L15.5998 12.3999L15.5998 7.30005L15.5996 7.3ZM7.2998 13.6L11.7002 13.6L11.7 13.6001L11.7 20L11.7002 20L7.2998 20L7.3 20L7.3 13.6001L7.2998 13.6ZM15.5996 16.3L20 16.3L19.9998 16.3L19.9998 20L20 20L15.5996 20L15.5998 20L15.5998 16.3L15.5996 16.3Z"
		fill="rgb(255,255,255)" fill-rule="evenodd" />
</svg>