<svg width="24.000000" height="24.000000" viewBox="0 0 24 24" fill="none" xmlns="http://www.w3.org/2000/svg">
	<defs>
		<clipPath id="clip91_7298">
			<rect id="Solid / Github Solid" width="24.000000" height="24.000000" fill="white" fill-opacity="0"/>
		</clipPath>
	</defs>
	<g clip-path="url(#clip91_7298)">
		<path id="Shape" d="M12 2C6.47 2 2 6.58 2 12.25C2 16.78 4.86 20.62 8.84 21.98C9.34 22.08 9.52 21.76 9.52 21.48C9.52 21.25 9.5 20.43 9.5 19.58C6.72 20.19 6.14 18.36 6.14 18.36C5.69 17.17 5.03 16.87 5.03 16.87C4.12 16.24 5.09 16.24 5.09 16.24C6.1 16.31 6.63 17.29 6.63 17.29C7.53 18.85 8.97 18.41 9.55 18.14C9.63 17.48 9.9 17.02 10.18 16.76C7.96 16.53 5.62 15.64 5.62 11.71C5.62 10.58 6.02 9.67 6.65 8.96C6.55 8.7 6.2 7.65 6.75 6.24C6.75 6.24 7.6 5.97 9.5 7.29C10.32 7.07 11.16 6.95 12 6.95C12.85 6.95 13.71 7.07 14.51 7.29C16.41 5.97 17.26 6.24 17.26 6.24C17.8 7.65 17.45 8.7 17.36 8.96C18 9.67 18.38 10.58 18.38 11.71C18.38 15.64 16.05 16.51 13.81 16.76C14.17 17.09 14.49 17.7 14.49 18.67C14.49 20.04 14.47 21.14 14.47 21.48C14.47 21.76 14.65 22.08 15.15 21.98C19.13 20.62 22 16.78 22 12.25C22.01 6.58 17.52 2 12 2Z" fill="#74767B" fill-opacity="1.000000" fill-rule="evenodd"/>
	</g>
</svg>
