<svg viewBox="0 0 28 28" xmlns="http://www.w3.org/2000/svg"
	xmlns:xlink="http://www.w3.org/1999/xlink" width="28.000000" height="28.000000" fill="none"
>
	<rect width="28.000000" height="28.000000" x="0.000000" y="0.000000" rx="4.000000"
		fill="rgb(0,98,255)" />
	<rect id="Outline / Icons Outline" width="24.000000" height="24.000000" x="2.000000" y="2.000000" />
	<path id="Shape"
		d="M14.9876 12.9999C14.5281 12.9999 14.2391 12.5046 14.4653 12.1046L17.9368 5.96508C18.1665 5.55884 18.7517 5.55884 18.9814 5.96508L22.4528 12.1046C22.679 12.5046 22.39 12.9999 21.9305 12.9999L14.9876 12.9999ZM5.69991 6.29989C5.69991 5.96852 5.96854 5.69989 6.29991 5.69989L12.3999 5.69989C12.7313 5.69989 12.9999 5.96852 12.9999 6.29989L12.9999 12.3999C12.9999 12.7313 12.7313 12.9999 12.3999 12.9999L6.29991 12.9999C5.96854 12.9999 5.69991 12.7313 5.69991 12.3999L5.69991 6.29989ZM6.99991 11.6999L6.99991 6.99989L11.6999 6.99989L11.6999 11.6999L6.99991 11.6999ZM16.1875 11.6999L18.4591 7.6826L20.7306 11.6999L16.1875 11.6999ZM9.90982 14.6718C9.6755 14.4375 9.2956 14.4375 9.06129 14.6718L5.64204 18.091C5.40773 18.3253 5.40773 18.7052 5.64204 18.9395L9.06129 22.3588C9.2956 22.5931 9.6755 22.5931 9.90982 22.3588L13.3291 18.9395C13.5634 18.7052 13.5634 18.3253 13.3291 18.091L9.90982 14.6718ZM18.459 22.3C20.5803 22.3 22.2999 20.5804 22.2999 18.4591C22.2999 16.3379 20.5803 14.6183 18.459 14.6183C16.3378 14.6183 14.6182 16.3379 14.6182 18.4591C14.6182 20.5804 16.3378 22.3 18.459 22.3ZM20.9999 18.4591C20.9999 17.0559 19.8623 15.9183 18.459 15.9183C17.0558 15.9183 15.9182 17.0559 15.9182 18.4591C15.9182 19.8624 17.0558 21 18.459 21C19.8623 21 20.9999 19.8624 20.9999 18.4591ZM9.48555 16.086L7.05626 18.5153L9.48555 20.9446L11.9148 18.5153L9.48555 16.086Z"
		fill="rgb(255,255,255)" fill-rule="evenodd" />
</svg>