<svg width="24.000000" height="24.000000" viewBox="0 0 24 24" fill="none" xmlns="http://www.w3.org/2000/svg" xmlns:xlink="http://www.w3.org/1999/xlink">
	<defs/>
	<mask id="mask28_8582" mask-type="alpha" maskUnits="userSpaceOnUse" x="0.000000" y="0.000000" width="24.000000" height="24.000000">
		<path id="path" d="M0 0L24 0L24 24L0 24L0 0Z" fill="#000000" fill-opacity="1.000000" fill-rule="nonzero"/>
	</mask>
	<g mask="url(#mask28_8582)">
		<path id="path" d="M14.15 6.49C12.53 6.49 11.22 7.8 11.22 9.42L11.22 19.85C11.22 20.99 10.3 21.91 9.16 21.91C8.03 21.91 7.11 20.99 7.11 19.85L7.11 9.42C7.11 5.53 10.26 2.37 14.15 2.37C18.03 2.37 21.19 5.53 21.19 9.42C21.19 13.3 18.03 16.46 14.15 16.46C13.01 16.46 12.09 15.54 12.09 14.4C12.09 13.26 13.01 12.38 14.15 12.38C15.76 12.38 17.07 11.03 17.07 9.42C17.07 7.8 15.76 6.49 14.15 6.49Z" fill="#FFFFFF" fill-opacity="1.000000" fill-rule="evenodd"/>
		<path id="path" d="M16.41 11.3C15.39 12.56 13.55 12.74 12.3 11.72L6.19 6.73C5.31 6.01 4.02 6.14 3.3 7.02C2.58 7.9 2.71 9.2 3.59 9.92L9.69 14.9C12.7 17.37 17.14 16.92 19.6 13.91C22.06 10.9 21.61 6.46 18.6 4C17.72 3.28 16.43 3.41 15.71 4.29C14.99 5.17 15.14 6.45 16.02 7.16C17.27 8.19 17.44 10.05 16.41 11.3Z" fill="#FFFFFF" fill-opacity="1.000000" fill-rule="evenodd"/>
		<path id="path" d="M5.98 8.36C5.98 8.97 5.49 9.46 4.88 9.46C4.26 9.46 3.77 8.97 3.77 8.36C3.77 7.74 4.26 7.25 4.88 7.25C5.49 7.25 5.98 7.74 5.98 8.36Z" fill="#FFFFFF" fill-opacity="1.000000" fill-rule="evenodd"/>
	</g>
</svg>
