<svg viewBox="0 0 28 28" xmlns="http://www.w3.org/2000/svg"
	xmlns:xlink="http://www.w3.org/1999/xlink" width="28.000000" height="28.000000" fill="none"
>
	<rect width="28.000000" height="28.000000" x="0.000000" y="0.000000" rx="4.000000"
		fill="rgb(0,98,255)" />
	<path id="path"
		d="M16.1513 8.49291C14.5346 8.49291 13.2239 9.80358 13.2239 11.4203L13.2239 21.8572C13.2239 22.9934 12.3032 23.914 11.1674 23.914C10.0313 23.914 9.1106 22.9934 9.1106 21.8572L9.1106 11.4203C9.1106 7.53186 12.263 4.37964 16.1513 4.37964C20.0399 4.37964 23.1923 7.53186 23.1923 11.4203C23.1923 15.3088 20.0399 18.461 16.1513 18.461C15.0155 18.461 14.0948 17.5402 14.0948 16.4044C14.0948 15.2686 15.0146 14.3855 16.1504 14.3855C17.7671 14.3855 19.079 13.0372 19.079 11.4203C19.079 9.80358 17.7683 8.49291 16.1513 8.49291Z"
		fill="rgb(255,255,255)" fill-rule="evenodd" />
	<path id="path"
		d="M18.42 13.3098C17.3967 14.5617 15.5526 14.7473 14.3004 13.7244L8.19536 8.73584C7.31606 8.01713 6.02036 8.14751 5.30156 9.02714C4.58276 9.90656 4.71326 11.2023 5.59285 11.921L11.6979 16.9094C14.709 19.37 19.1445 18.9235 21.6051 15.9125C24.0654 12.9014 23.619 8.46578 20.6079 6.00539C19.7283 5.28668 18.4326 5.41706 17.7141 6.29666C16.9953 7.17614 17.1432 8.45033 18.0228 9.16904C19.2747 10.192 19.4427 12.0578 18.42 13.3098Z"
		fill="rgb(255,255,255)" fill-rule="evenodd" />
	<path id="path"
		d="M7.98834 10.3613C7.98834 10.9729 7.49244 11.4687 6.88104 11.4687C6.26934 11.4687 5.77344 10.9729 5.77344 10.3613C5.77344 9.74969 6.26934 9.25391 6.88104 9.25391C7.49244 9.25391 7.98834 9.74969 7.98834 10.3613Z"
		fill="rgb(255,255,255)" fill-rule="evenodd" />
</svg>